<?xml version="1.0" standalone="no"?>
<svg viewBox="0 0 200 200" xmlns="http://www.w3.org/2000/svg">
  <path fill="#580414" d="M34.7,-59C49.2,-51.8,67.9,-50.9,71.8,-42.1C75.7,-33.3,64.8,-16.7,63.6,-0.7C62.5,15.4,71.2,30.7,68.8,42.2C66.5,53.7,53.1,61.3,39.8,69.4C26.5,77.4,13.3,85.8,0.5,85C-12.3,84.2,-24.7,74.1,-36.4,65.2C-48.1,56.3,-59.2,48.4,-63.6,37.7C-68,27.1,-65.7,13.5,-64.3,0.8C-63,-12,-62.6,-23.9,-56.5,-31.8C-50.5,-39.6,-38.9,-43.4,-28.5,-52.8C-18.1,-62.3,-9.1,-77.5,0.5,-78.5C10.2,-79.4,20.3,-66.1,34.7,-59Z" transform="translate(100 100)" />
</svg>
