<?xml version="1.0" standalone="no"?>
<svg viewBox="0 0 200 200" xmlns="http://www.w3.org/2000/svg">
  <path fill="#580414" d="M45.5,-70.4C56.4,-63.7,60.8,-46.8,68.6,-31C76.3,-15.2,87.3,-0.5,85.1,12C82.9,24.5,67.5,34.8,53.6,41C39.8,47.2,27.4,49.2,15.7,52C3.9,54.9,-7.2,58.6,-17.3,56.7C-27.5,54.8,-36.6,47.3,-47.6,38.9C-58.6,30.5,-71.3,21.3,-77.8,8.2C-84.3,-4.8,-84.5,-21.8,-79.1,-37.1C-73.6,-52.5,-62.5,-66.3,-48.4,-71.4C-34.3,-76.5,-17.1,-73,0.1,-73.1C17.3,-73.2,34.6,-77,45.5,-70.4Z" transform="translate(100 100)" />
</svg>
