<?xml version="1.0" standalone="no"?>
<svg viewBox="0 0 200 200" xmlns="http://www.w3.org/2000/svg">
  <path fill="#580414" d="M46.6,-74.9C60.4,-72.8,71.6,-60.3,79.4,-46.1C87.1,-31.9,91.4,-15.9,86.2,-3C81.1,10,66.6,20,55.5,28.5C44.5,37.1,37,44.1,28.3,46.2C19.7,48.2,9.8,45.4,-1.8,48.5C-13.4,51.6,-26.9,60.7,-34.7,58.2C-42.6,55.6,-45,41.5,-53.2,29.8C-61.4,18.2,-75.6,9.1,-79.4,-2.2C-83.2,-13.5,-76.7,-27,-69.7,-40.9C-62.8,-54.9,-55.6,-69.3,-43.9,-72.6C-32.2,-76,-16.1,-68.3,0.2,-68.6C16.4,-68.9,32.8,-77.1,46.6,-74.9Z" transform="translate(100 100)" />
</svg>
