<?xml version="1.0" standalone="no"?>
<svg viewBox="0 0 200 200" xmlns="http://www.w3.org/2000/svg">
  <path fill="#580414" d="M35.2,-58.5C46.3,-54.6,56.3,-46.5,62.5,-36C68.7,-25.6,71,-12.8,65.5,-3.2C60,6.4,46.7,12.8,40.9,23.9C35,35,36.7,50.8,31.2,56.7C25.6,62.7,12.8,58.9,2.9,53.9C-7,48.9,-14,42.6,-22.2,38.1C-30.4,33.7,-39.8,31.1,-44.5,25C-49.1,19,-48.8,9.5,-48.9,0C-48.9,-9.5,-49.2,-19.1,-48.2,-31.3C-47.1,-43.5,-44.7,-58.3,-36.4,-63.8C-28.2,-69.3,-14.1,-65.4,-1,-63.7C12.1,-61.9,24.2,-62.3,35.2,-58.5Z" transform="translate(100 100)" />
</svg>
