<?xml version="1.0" standalone="no"?>
<svg viewBox="0 0 200 200" xmlns="http://www.w3.org/2000/svg">
  <path fill="#580414" d="M42.5,-73.7C55.3,-66.2,66,-55.2,69.6,-42.4C73.1,-29.6,69.5,-14.8,65,-2.6C60.5,9.6,55.1,19.1,51.7,32.3C48.4,45.5,47,62.3,38.7,71C30.5,79.7,15.2,80.2,2.7,75.5C-9.7,70.7,-19.5,60.7,-27.4,51.8C-35.4,42.9,-41.6,35.3,-44.7,26.8C-47.7,18.4,-47.7,9.2,-51,-1.9C-54.2,-12.9,-60.7,-25.9,-55.9,-31.3C-51.1,-36.7,-34.9,-34.6,-23.7,-43.1C-12.5,-51.5,-6.3,-70.5,4.3,-78C14.8,-85.4,29.7,-81.2,42.5,-73.7Z" transform="translate(100 100)" />
</svg>
